<svg id="visual" viewBox="0 0 900 600" width="900" height="600" xmlns="http://www.w3.org/2000/svg" xmlns:xlink="http://www.w3.org/1999/xlink" version="1.1"><rect x="0" y="0" width="900" height="600" fill="#14042c"></rect><defs><linearGradient id="grad1_0" x1="33.3%" y1="0%" x2="100%" y2="100%"><stop offset="20%" stop-color="#220848" stop-opacity="1"></stop><stop offset="80%" stop-color="#220848" stop-opacity="1"></stop></linearGradient></defs><defs><linearGradient id="grad1_1" x1="33.3%" y1="0%" x2="100%" y2="100%"><stop offset="20%" stop-color="#220848" stop-opacity="1"></stop><stop offset="80%" stop-color="#19083a" stop-opacity="1"></stop></linearGradient></defs><defs><linearGradient id="grad1_2" x1="33.3%" y1="0%" x2="100%" y2="100%"><stop offset="20%" stop-color="#14042c" stop-opacity="1"></stop><stop offset="80%" stop-color="#19083a" stop-opacity="1"></stop></linearGradient></defs><defs><linearGradient id="grad2_0" x1="0%" y1="0%" x2="66.7%" y2="100%"><stop offset="20%" stop-color="#220848" stop-opacity="1"></stop><stop offset="80%" stop-color="#220848" stop-opacity="1"></stop></linearGradient></defs><defs><linearGradient id="grad2_1" x1="0%" y1="0%" x2="66.7%" y2="100%"><stop offset="20%" stop-color="#19083a" stop-opacity="1"></stop><stop offset="80%" stop-color="#220848" stop-opacity="1"></stop></linearGradient></defs><defs><linearGradient id="grad2_2" x1="0%" y1="0%" x2="66.7%" y2="100%"><stop offset="20%" stop-color="#19083a" stop-opacity="1"></stop><stop offset="80%" stop-color="#14042c" stop-opacity="1"></stop></linearGradient></defs><g transform="translate(900, 0)"><path d="M0 351.5C-41.3 337.9 -82.7 324.3 -128.6 310.4C-174.5 296.5 -224.9 282.4 -248.6 248.6C-272.2 214.8 -269.1 161.4 -281.8 116.7C-294.5 72 -323 36 -351.5 0L0 0Z" fill="#160733"></path><path d="M0 234.4C-27.6 225.3 -55.1 216.2 -85.7 206.9C-116.3 197.7 -149.9 188.2 -165.7 165.7C-181.5 143.2 -179.4 107.6 -187.9 77.8C-196.3 48 -215.3 24 -234.4 0L0 0Z" fill="#1d0941"></path><path d="M0 117.2C-13.8 112.6 -27.6 108.1 -42.9 103.5C-58.2 98.8 -75 94.1 -82.9 82.9C-90.7 71.6 -89.7 53.8 -93.9 38.9C-98.2 24 -107.7 12 -117.2 0L0 0Z" fill="#220848"></path></g><g transform="translate(0, 600)"><path d="M0 -351.5C49.5 -351 99.1 -350.4 134.5 -324.8C170 -299.1 191.3 -248.4 209.3 -209.3C227.3 -170.2 242 -142.8 265.2 -109.8C288.3 -76.9 319.9 -38.4 351.5 0L0 0Z" fill="#160733"></path><path d="M0 -234.4C33 -234 66.1 -233.6 89.7 -216.5C113.3 -199.4 127.5 -165.6 139.5 -139.5C151.5 -113.5 161.3 -95.2 176.8 -73.2C192.2 -51.3 213.3 -25.6 234.4 0L0 0Z" fill="#1d0941"></path><path d="M0 -117.2C16.5 -117 33 -116.8 44.8 -108.3C56.7 -99.7 63.8 -82.8 69.8 -69.8C75.8 -56.7 80.7 -47.6 88.4 -36.6C96.1 -25.6 106.6 -12.8 117.2 0L0 0Z" fill="#220848"></path></g></svg>