<svg id="visual" viewBox="0 0 960 540" width="960" height="540" xmlns="http://www.w3.org/2000/svg" xmlns:xlink="http://www.w3.org/1999/xlink" version="1.1"><rect x="0" y="0" width="960" height="540" fill="#14042c"></rect><defs><linearGradient id="grad1_0" x1="43.8%" y1="0%" x2="100%" y2="100%"><stop offset="14.444444444444446%" stop-color="#14042c" stop-opacity="1"></stop><stop offset="85.55555555555554%" stop-color="#14042c" stop-opacity="1"></stop></linearGradient></defs><defs><linearGradient id="grad2_0" x1="0%" y1="0%" x2="56.3%" y2="100%"><stop offset="14.444444444444446%" stop-color="#14042c" stop-opacity="1"></stop><stop offset="85.55555555555554%" stop-color="#14042c" stop-opacity="1"></stop></linearGradient></defs><g transform="translate(960, 0)"><path d="M0 270C-29.1 268 -58.1 266 -83.1 255.8C-108.1 245.6 -129 227.2 -153.4 211.2C-177.8 195.1 -205.7 181.4 -218.4 158.7C-231.2 136 -228.8 104.3 -234.9 76.3C-241 48.4 -255.5 24.2 -270 0L0 0Z" fill="#1b063a"></path></g><g transform="translate(0, 540)"><path d="M0 -270C29.3 -269.1 58.6 -268.3 83.4 -256.8C108.2 -245.3 128.6 -223.2 148.1 -203.9C167.7 -184.6 186.5 -168.1 204.7 -148.7C222.8 -129.3 240.3 -106.9 251.1 -81.6C261.9 -56.3 265.9 -28.1 270 0L0 0Z" fill="#1b063a"></path></g></svg>